<svg xmlns="http://www.w3.org/2000/svg" viewBox="0 0 24 24" width="24" height="24"><path fill="none" d="M0 0h24v24H0z"/>
<!--border-->
<path fill="#3ea3de" d="M21 8v12.993A1 1 0 0 1 20.007 22H3.993A.993.993 0 0 1 3 21.008V2.992C3 2.455 3.449 2 4.002 2h10.995L21 8zm-2 1h-5V4H5v16h14V9z"/>
<!--icon-->
<path fill="#3ea3de" d="M8.8 8.5m0.225 1.215l2.16 0l0 -1.125l1.08 0l0 1.125l2.16 0l0 1.08l-5.4 0l0 -1.08zm2.7 1.35a1.845 1.71 0 0 1 0 3.42a1.845 1.71 0 0 1 0 -3.42zm0 0.99a0.495 0.45 0 1 0 0 1.44a0.495 0.45 0 1 0 0 -1.44zm0 2.88a0.63 0.585 0 0 1 0 1.17a0.63 0.585 0 0 1 0 -1.17m-2.88 0.315l1.08 0l0 1.44l4.59 0l0 0.99l-5.67 0l0 -2.43z"/></svg>