<svg aria-hidden="true" focusable="false" data-prefix="fas" data-icon="file-word" class="svg-inline--fa fa-file-word fa-w-12" role="img" xmlns="http://www.w3.org/2000/svg" viewBox="0 0 384 512"><path fill="#00a3de" d="M224 136V0H24C10.7 0 0 10.7 0 24v464c0 13.3 10.7 24 24 24h336c13.3 0 24-10.7 24-24V160H248c-13.2 0-24-10.8-24-24zm-107 70m6 32l57 0l0 -30l28 0l0 30l57 0l0 28l-144 0l0 -28zm72 36a49 45 0 0 1 0 91a49 45 0 0 1 0 -91zm0 26a13 12 0 0 1 0 38a13 12 0 0 1 0 -38zm0 76a16 15 0 0 1 0 31a16 15 0 0 1 0 -31m-76 8l28 0l0 38l122 0l0 26l-151 0l0 -64zzM384 121.9v6.1H256V0h6.1c6.4 0 12.5 2.5 17 7l97.9 98c4.5 4.5 7 10.6 7 16.9z"></path></svg>